# xmcd
#
# Track frame offsets: 
#        183
#        21058
#        39275
#        57088
#        74123
#        96833
#        114450
#        138258
#        156683
#
# Disc length: 2476 seconds
#
# Revision: 1
# Processed by: cddbd v1.5.2PL0 Copyright (c) Steve Scherf et al.
# Submitted via: ExactAudioCopy v0.95a5
#
DISCID=7b09aa09
DTITLE=達明一派 - 我等著你回來
DYEAR=1987
DGENRE=Synthpop
TTITLE0=我等著...今夜星光燦爛
TTITLE1=溜冰滾族
TTITLE2=大亞灣之戀
TTITLE3=神奇女俠
TTITLE4=你望我望
TTITLE5=那個下午我在舊居燒信
TTITLE6=別等
TTITLE7=上路
TTITLE8=情探  ...你回來
EXTD=
EXTT0=
EXTT1=
EXTT2=
EXTT3=
EXTT4=
EXTT5=
EXTT6=
EXTT7=
EXTT8=
PLAYORDER=
